<mxfile host="app.diagrams.net" modified="2023-09-08T02:52:02.591Z" agent="Mozilla/5.0 (Macintosh; Intel Mac OS X 10_15_7) AppleWebKit/537.36 (KHTML, like Gecko) Chrome/115.0.0.0 Safari/537.36" etag="u4JXiof4keKeseBOHxsB" version="21.6.8" type="github">
  <diagram name="Page-1" id="e7e014a7-5840-1c2e-5031-d8a46d1fe8dd">
    <mxGraphModel dx="1242" dy="790" grid="1" gridSize="10" guides="1" tooltips="1" connect="1" arrows="1" fold="1" page="1" pageScale="1" pageWidth="1169" pageHeight="826" background="none" math="0" shadow="0">
      <root>
        <mxCell id="0" />
        <mxCell id="1" parent="0" />
        <mxCell id="5" value="" style="ellipse;shape=startState;fillColor=#000000;strokeColor=#ff0000;" parent="1" vertex="1">
          <mxGeometry x="420" y="130" width="30" height="30" as="geometry" />
        </mxCell>
        <mxCell id="6" value="" style="edgeStyle=elbowEdgeStyle;elbow=horizontal;verticalAlign=bottom;endArrow=open;endSize=8;strokeColor=#FF0000;endFill=1;rounded=0" parent="1" source="5" target="7" edge="1">
          <mxGeometry x="264.5" y="168" as="geometry">
            <mxPoint x="435" y="170" as="targetPoint" />
          </mxGeometry>
        </mxCell>
        <mxCell id="7" value="生产数据" style="" parent="1" vertex="1">
          <mxGeometry x="380" y="190" width="110" height="50" as="geometry" />
        </mxCell>
        <mxCell id="8" value="放入缓冲通道" style="" parent="1" vertex="1">
          <mxGeometry x="380" y="280" width="110" height="50" as="geometry" />
        </mxCell>
        <mxCell id="9" value="" style="endArrow=open;strokeColor=#FF0000;endFill=1;rounded=0" parent="1" source="7" target="8" edge="1">
          <mxGeometry relative="1" as="geometry" />
        </mxCell>
        <mxCell id="10" value="批量上报" style="" parent="1" vertex="1">
          <mxGeometry x="560" y="365" width="110" height="50" as="geometry" />
        </mxCell>
        <mxCell id="wSzKYDCPBYMmon0s4xJu-41" value="满足条件？" style="rhombus;whiteSpace=wrap;html=1;fontColor=#000000;fillColor=#ffffc0;strokeColor=#ff0000;" parent="1" vertex="1">
          <mxGeometry x="395" y="370" width="80" height="40" as="geometry" />
        </mxCell>
        <mxCell id="wSzKYDCPBYMmon0s4xJu-42" value="no" style="edgeStyle=orthogonalEdgeStyle;html=1;align=left;verticalAlign=bottom;endArrow=open;endSize=8;strokeColor=#ff0000;rounded=0;entryX=0;entryY=0.5;entryDx=0;entryDy=0;" parent="1" source="wSzKYDCPBYMmon0s4xJu-41" target="8" edge="1">
          <mxGeometry x="-1" relative="1" as="geometry">
            <mxPoint x="670" y="380" as="targetPoint" />
            <Array as="points">
              <mxPoint x="340" y="390" />
              <mxPoint x="340" y="305" />
            </Array>
          </mxGeometry>
        </mxCell>
        <mxCell id="wSzKYDCPBYMmon0s4xJu-43" value="yes" style="html=1;align=left;verticalAlign=top;endArrow=open;endSize=8;strokeColor=#ff0000;rounded=0;entryX=0;entryY=0.5;entryDx=0;entryDy=0;" parent="1" source="wSzKYDCPBYMmon0s4xJu-41" target="10" edge="1">
          <mxGeometry x="-1" relative="1" as="geometry">
            <mxPoint x="530" y="460" as="targetPoint" />
          </mxGeometry>
        </mxCell>
        <mxCell id="wSzKYDCPBYMmon0s4xJu-44" value="" style="endArrow=open;strokeColor=#FF0000;endFill=1;rounded=0;entryX=0.5;entryY=0;entryDx=0;entryDy=0;" parent="1" target="wSzKYDCPBYMmon0s4xJu-41" edge="1">
          <mxGeometry relative="1" as="geometry">
            <mxPoint x="434.5" y="330" as="sourcePoint" />
            <mxPoint x="434.5" y="390" as="targetPoint" />
          </mxGeometry>
        </mxCell>
        <mxCell id="wSzKYDCPBYMmon0s4xJu-45" value="数据处理" style="" parent="1" vertex="1">
          <mxGeometry x="560" y="280" width="110" height="50" as="geometry" />
        </mxCell>
        <mxCell id="wSzKYDCPBYMmon0s4xJu-46" value="持久化存储" style="" parent="1" vertex="1">
          <mxGeometry x="560" y="190" width="110" height="50" as="geometry" />
        </mxCell>
        <mxCell id="wSzKYDCPBYMmon0s4xJu-47" value="" style="ellipse;html=1;shape=endState;fillColor=#000000;strokeColor=#ff0000;" parent="1" vertex="1">
          <mxGeometry x="600" y="130" width="30" height="30" as="geometry" />
        </mxCell>
        <mxCell id="wSzKYDCPBYMmon0s4xJu-48" value="" style="endArrow=open;strokeColor=#FF0000;endFill=1;rounded=0;exitX=0.5;exitY=0;exitDx=0;exitDy=0;entryX=0.5;entryY=1;entryDx=0;entryDy=0;" parent="1" source="10" target="wSzKYDCPBYMmon0s4xJu-45" edge="1">
          <mxGeometry relative="1" as="geometry">
            <mxPoint x="434.5" y="500" as="sourcePoint" />
            <mxPoint x="434.5" y="560" as="targetPoint" />
          </mxGeometry>
        </mxCell>
        <mxCell id="wSzKYDCPBYMmon0s4xJu-49" value="" style="endArrow=open;strokeColor=#FF0000;endFill=1;rounded=0;entryX=0.5;entryY=1;entryDx=0;entryDy=0;exitX=0.5;exitY=0;exitDx=0;exitDy=0;" parent="1" target="wSzKYDCPBYMmon0s4xJu-46" edge="1" source="wSzKYDCPBYMmon0s4xJu-45">
          <mxGeometry relative="1" as="geometry">
            <mxPoint x="434.5" y="600" as="sourcePoint" />
            <mxPoint x="434.5" y="660" as="targetPoint" />
          </mxGeometry>
        </mxCell>
        <mxCell id="wSzKYDCPBYMmon0s4xJu-50" value="" style="endArrow=open;strokeColor=#FF0000;endFill=1;rounded=0;entryX=0.5;entryY=1;entryDx=0;entryDy=0;exitX=0.5;exitY=0;exitDx=0;exitDy=0;" parent="1" edge="1" target="wSzKYDCPBYMmon0s4xJu-47" source="wSzKYDCPBYMmon0s4xJu-46">
          <mxGeometry relative="1" as="geometry">
            <mxPoint x="434.5" y="680" as="sourcePoint" />
            <mxPoint x="435" y="710" as="targetPoint" />
          </mxGeometry>
        </mxCell>
      </root>
    </mxGraphModel>
  </diagram>
</mxfile>
